<mxfile host="app.diagrams.net" modified="2021-10-14T19:46:50.303Z" agent="5.0 (Macintosh; Intel Mac OS X 10_15_7) AppleWebKit/537.36 (KHTML, like Gecko) Chrome/92.0.4515.159 Safari/537.36" etag="n6SRlnyAd7HBacVDIEv-" version="15.5.2" type="github">
  <diagram id="OlW4c_LbeFfplE5JJlSk" name="Page-1">
    <mxGraphModel dx="946" dy="455" grid="1" gridSize="10" guides="1" tooltips="1" connect="1" arrows="1" fold="1" page="1" pageScale="1" pageWidth="827" pageHeight="1169" math="0" shadow="0">
      <root>
        <mxCell id="0" />
        <mxCell id="1" parent="0" />
        <mxCell id="E7fuQh0Gtf3ZOkumeaZ6-1" value="CAFF Store" style="ellipse;whiteSpace=wrap;html=1;aspect=fixed;" vertex="1" parent="1">
          <mxGeometry x="330" y="175" width="150" height="150" as="geometry" />
        </mxCell>
        <mxCell id="E7fuQh0Gtf3ZOkumeaZ6-2" value="admin" style="rounded=0;whiteSpace=wrap;html=1;" vertex="1" parent="1">
          <mxGeometry x="140" y="230" width="90" height="40" as="geometry" />
        </mxCell>
        <mxCell id="E7fuQh0Gtf3ZOkumeaZ6-3" value="user" style="rounded=0;whiteSpace=wrap;html=1;" vertex="1" parent="1">
          <mxGeometry x="360" y="70" width="90" height="40" as="geometry" />
        </mxCell>
        <mxCell id="E7fuQh0Gtf3ZOkumeaZ6-4" value="user data" style="rounded=0;whiteSpace=wrap;html=1;" vertex="1" parent="1">
          <mxGeometry x="580" y="175" width="120" height="30" as="geometry" />
        </mxCell>
        <mxCell id="E7fuQh0Gtf3ZOkumeaZ6-5" value="comments" style="rounded=0;whiteSpace=wrap;html=1;" vertex="1" parent="1">
          <mxGeometry x="580" y="230" width="120" height="30" as="geometry" />
        </mxCell>
        <mxCell id="E7fuQh0Gtf3ZOkumeaZ6-6" value="CAFF files" style="rounded=0;whiteSpace=wrap;html=1;" vertex="1" parent="1">
          <mxGeometry x="580" y="290" width="120" height="30" as="geometry" />
        </mxCell>
        <mxCell id="E7fuQh0Gtf3ZOkumeaZ6-7" value="" style="endArrow=classic;html=1;rounded=0;entryX=0;entryY=1;entryDx=0;entryDy=0;exitX=0.907;exitY=0.207;exitDx=0;exitDy=0;exitPerimeter=0;" edge="1" parent="1" source="E7fuQh0Gtf3ZOkumeaZ6-1" target="E7fuQh0Gtf3ZOkumeaZ6-4">
          <mxGeometry width="50" height="50" relative="1" as="geometry">
            <mxPoint x="390" y="270" as="sourcePoint" />
            <mxPoint x="440" y="220" as="targetPoint" />
          </mxGeometry>
        </mxCell>
        <mxCell id="E7fuQh0Gtf3ZOkumeaZ6-8" value="" style="endArrow=classic;html=1;rounded=0;entryX=0.5;entryY=0;entryDx=0;entryDy=0;exitX=0;exitY=0;exitDx=0;exitDy=0;" edge="1" parent="1" source="E7fuQh0Gtf3ZOkumeaZ6-4" target="E7fuQh0Gtf3ZOkumeaZ6-1">
          <mxGeometry width="50" height="50" relative="1" as="geometry">
            <mxPoint x="449.99999999999994" y="151.04999999999995" as="sourcePoint" />
            <mxPoint x="563.95" y="150" as="targetPoint" />
          </mxGeometry>
        </mxCell>
        <mxCell id="E7fuQh0Gtf3ZOkumeaZ6-9" value="" style="endArrow=classic;html=1;rounded=0;entryX=0;entryY=1;entryDx=0;entryDy=0;exitX=1.007;exitY=0.567;exitDx=0;exitDy=0;exitPerimeter=0;" edge="1" parent="1" source="E7fuQh0Gtf3ZOkumeaZ6-1" target="E7fuQh0Gtf3ZOkumeaZ6-5">
          <mxGeometry width="50" height="50" relative="1" as="geometry">
            <mxPoint x="500" y="260" as="sourcePoint" />
            <mxPoint x="570" y="260" as="targetPoint" />
          </mxGeometry>
        </mxCell>
        <mxCell id="E7fuQh0Gtf3ZOkumeaZ6-10" value="" style="endArrow=classic;html=1;rounded=0;entryX=0;entryY=1;entryDx=0;entryDy=0;exitX=0.68;exitY=0.973;exitDx=0;exitDy=0;exitPerimeter=0;" edge="1" parent="1" source="E7fuQh0Gtf3ZOkumeaZ6-1" target="E7fuQh0Gtf3ZOkumeaZ6-6">
          <mxGeometry width="50" height="50" relative="1" as="geometry">
            <mxPoint x="486.04999999999995" y="226.04999999999995" as="sourcePoint" />
            <mxPoint x="600" y="225" as="targetPoint" />
          </mxGeometry>
        </mxCell>
        <mxCell id="E7fuQh0Gtf3ZOkumeaZ6-11" value="" style="endArrow=classic;html=1;rounded=0;exitX=0;exitY=0;exitDx=0;exitDy=0;entryX=0.98;entryY=0.373;entryDx=0;entryDy=0;entryPerimeter=0;" edge="1" parent="1" source="E7fuQh0Gtf3ZOkumeaZ6-5" target="E7fuQh0Gtf3ZOkumeaZ6-1">
          <mxGeometry width="50" height="50" relative="1" as="geometry">
            <mxPoint x="496.04999999999995" y="236.04999999999995" as="sourcePoint" />
            <mxPoint x="610" y="235" as="targetPoint" />
          </mxGeometry>
        </mxCell>
        <mxCell id="E7fuQh0Gtf3ZOkumeaZ6-12" value="" style="endArrow=classic;html=1;rounded=0;exitX=0;exitY=0;exitDx=0;exitDy=0;" edge="1" parent="1" source="E7fuQh0Gtf3ZOkumeaZ6-6">
          <mxGeometry width="50" height="50" relative="1" as="geometry">
            <mxPoint x="573" y="290" as="sourcePoint" />
            <mxPoint x="470" y="290" as="targetPoint" />
          </mxGeometry>
        </mxCell>
        <mxCell id="E7fuQh0Gtf3ZOkumeaZ6-13" value="" style="endArrow=classic;html=1;rounded=0;exitX=0.5;exitY=0;exitDx=0;exitDy=0;entryX=0.5;entryY=1;entryDx=0;entryDy=0;" edge="1" parent="1" source="E7fuQh0Gtf3ZOkumeaZ6-1" target="E7fuQh0Gtf3ZOkumeaZ6-3">
          <mxGeometry width="50" height="50" relative="1" as="geometry">
            <mxPoint x="390" y="210" as="sourcePoint" />
            <mxPoint x="440" y="160" as="targetPoint" />
            <Array as="points">
              <mxPoint x="380" y="140" />
            </Array>
          </mxGeometry>
        </mxCell>
        <mxCell id="E7fuQh0Gtf3ZOkumeaZ6-14" value="" style="endArrow=classic;html=1;rounded=0;exitX=0;exitY=0.5;exitDx=0;exitDy=0;entryX=1;entryY=0.5;entryDx=0;entryDy=0;" edge="1" parent="1" source="E7fuQh0Gtf3ZOkumeaZ6-1" target="E7fuQh0Gtf3ZOkumeaZ6-2">
          <mxGeometry width="50" height="50" relative="1" as="geometry">
            <mxPoint x="285" y="315" as="sourcePoint" />
            <mxPoint x="285" y="250" as="targetPoint" />
            <Array as="points">
              <mxPoint x="280" y="270" />
            </Array>
          </mxGeometry>
        </mxCell>
        <mxCell id="E7fuQh0Gtf3ZOkumeaZ6-15" value="" style="endArrow=classic;html=1;rounded=0;exitX=1;exitY=0.5;exitDx=0;exitDy=0;entryX=0;entryY=0.5;entryDx=0;entryDy=0;" edge="1" parent="1" source="E7fuQh0Gtf3ZOkumeaZ6-2" target="E7fuQh0Gtf3ZOkumeaZ6-1">
          <mxGeometry width="50" height="50" relative="1" as="geometry">
            <mxPoint x="340" y="260" as="sourcePoint" />
            <mxPoint x="240" y="260" as="targetPoint" />
            <Array as="points">
              <mxPoint x="280" y="230" />
            </Array>
          </mxGeometry>
        </mxCell>
        <mxCell id="E7fuQh0Gtf3ZOkumeaZ6-16" value="" style="endArrow=classic;html=1;rounded=0;entryX=0.5;entryY=0;entryDx=0;entryDy=0;exitX=0.5;exitY=1;exitDx=0;exitDy=0;" edge="1" parent="1" source="E7fuQh0Gtf3ZOkumeaZ6-3" target="E7fuQh0Gtf3ZOkumeaZ6-1">
          <mxGeometry width="50" height="50" relative="1" as="geometry">
            <mxPoint x="390" y="210" as="sourcePoint" />
            <mxPoint x="440" y="160" as="targetPoint" />
            <Array as="points">
              <mxPoint x="430" y="140" />
            </Array>
          </mxGeometry>
        </mxCell>
        <mxCell id="E7fuQh0Gtf3ZOkumeaZ6-17" value="" style="endArrow=none;dashed=1;html=1;rounded=0;fillColor=#f8cecc;strokeColor=#B80404;strokeWidth=2;" edge="1" parent="1">
          <mxGeometry width="50" height="50" relative="1" as="geometry">
            <mxPoint x="320" y="160" as="sourcePoint" />
            <mxPoint x="490" y="150" as="targetPoint" />
            <Array as="points">
              <mxPoint x="400" y="140" />
            </Array>
          </mxGeometry>
        </mxCell>
        <mxCell id="E7fuQh0Gtf3ZOkumeaZ6-18" value="" style="endArrow=none;dashed=1;html=1;rounded=0;fillColor=#f8cecc;strokeColor=#B80404;strokeWidth=2;" edge="1" parent="1">
          <mxGeometry width="50" height="50" relative="1" as="geometry">
            <mxPoint x="290" y="330" as="sourcePoint" />
            <mxPoint x="290" y="180" as="targetPoint" />
            <Array as="points">
              <mxPoint x="280" y="250" />
            </Array>
          </mxGeometry>
        </mxCell>
      </root>
    </mxGraphModel>
  </diagram>
</mxfile>
